HIERARCHY
ROOT joint_Root
{
  OFFSET 0 0 0
  CHANNELS 6 Xposition Yposition Zposition Zrotation Xrotation Yrotation
  JOINT Hips
  {
    OFFSET 0 93.9241 -3
    CHANNELS 6 Xposition Yposition Zposition Zrotation Xrotation Yrotation
    JOINT Spine
    {
      OFFSET 15.7357 0 0
      CHANNELS 6 Xposition Yposition Zposition Zrotation Xrotation Yrotation
      JOINT Chest
      {
        OFFSET 8.98455 -0.406207 0
        CHANNELS 6 Xposition Yposition Zposition Zrotation Xrotation Yrotation
        JOINT Neck
        {
          OFFSET 16.3773 0 0
          CHANNELS 6 Xposition Yposition Zposition Zrotation Xrotation Yrotation
          JOINT Head
          {
            OFFSET 6.45672 0 0
            CHANNELS 6 Xposition Yposition Zposition Zrotation Xrotation Yrotation
            End Site
            {
              OFFSET 0 0 0
            }
          }
        }
        JOINT Shoulder_L
        {
          OFFSET 12.9942 -0.242716 4.98039
          CHANNELS 6 Xposition Yposition Zposition Zrotation Xrotation Yrotation
          JOINT UpperArm_L
          {
            OFFSET 5.34809 0 0
            CHANNELS 6 Xposition Yposition Zposition Zrotation Xrotation Yrotation
            JOINT LowerArm_L
            {
              OFFSET 24.3286 1.87007e-05 0
              CHANNELS 6 Xposition Yposition Zposition Zrotation Xrotation Yrotation
              JOINT Hand_L
              {
                OFFSET 22.2916 0 0
                CHANNELS 6 Xposition Yposition Zposition Zrotation Xrotation Yrotation
                End Site
                {
                  OFFSET 0 0 0
                }
              }
            }
          }
        }
        JOINT Shoulder_R
        {
          OFFSET 12.9945 -0.242716 -4.98039
          CHANNELS 6 Xposition Yposition Zposition Zrotation Xrotation Yrotation
          JOINT UpperArm_R
          {
            OFFSET -5.34813 0 0
            CHANNELS 6 Xposition Yposition Zposition Zrotation Xrotation Yrotation
            JOINT LowerArm_R
            {
              OFFSET -24.3289 0.000322201 0
              CHANNELS 6 Xposition Yposition Zposition Zrotation Xrotation Yrotation
              JOINT Hand_R
              {
                OFFSET -22.2915 -0.000108084 0
                CHANNELS 6 Xposition Yposition Zposition Zrotation Xrotation Yrotation
                End Site
                {
                  OFFSET 0 0 0
                }
              }
            }
          }
        }
      }
    }
    JOINT UpperLeg_L
    {
      OFFSET -2.19248 -6.46944 0
      CHANNELS 6 Xposition Yposition Zposition Zrotation Xrotation Yrotation
      JOINT LowerLeg_L
      {
        OFFSET 39.0811 0 -1.23785e-05
        CHANNELS 6 Xposition Yposition Zposition Zrotation Xrotation Yrotation
        JOINT Foot_L
        {
          OFFSET 40.9854 0 -1.26872e-05
          CHANNELS 6 Xposition Yposition Zposition Zrotation Xrotation Yrotation
          JOINT Toes_L
          {
            OFFSET 11.7543 0 0
            CHANNELS 6 Xposition Yposition Zposition Zrotation Xrotation Yrotation
            End Site
            {
              OFFSET 0 0 0
            }
          }
        }
      }
    }
    JOINT UpperLeg_R
    {
      OFFSET -2.19251 6.46944 0
      CHANNELS 6 Xposition Yposition Zposition Zrotation Xrotation Yrotation
      JOINT LowerLeg_R
      {
        OFFSET -39.0811 -0.00228153 -0.0401928
        CHANNELS 6 Xposition Yposition Zposition Zrotation Xrotation Yrotation
        JOINT Foot_R
        {
          OFFSET -40.9854 0 0
          CHANNELS 6 Xposition Yposition Zposition Zrotation Xrotation Yrotation
          JOINT Toes_R
          {
            OFFSET -11.7543 0 0
            CHANNELS 6 Xposition Yposition Zposition Zrotation Xrotation Yrotation
            End Site
            {
              OFFSET 0 0 0
            }
          }
        }
      }
    }
  }
}
MOTION
Frames:	4
Frame Time:	0.0333333
0 0 0 0 0 -0 1.52164 90.9992 -465.823 86.9084 -0.222017 -2.42868 15.7357 5.1072e-06 -5.51765e-07 161.106 86.5621 -159.736 8.98455 -0.406207 -4.3199e-07 -5.63305 6.337 3.05592 16.3773 -1.3905e-06 -6.99897e-07 -11.9138 0.922165 -3.30755 6.45672 -1.25837e-06 -1.02172e-07 -3.34903 -6.7367 -2.52039 12.9942 -0.242716 4.98039 -90.5729 1.74746 -86.8464 5.34809 -7.22636e-06 -6.2814e-07 -52.168 -26.7976 26.8376 24.3286 1.87007e-05 4.90207e-06 7.03969 14.6008 -26.0971 22.2916 -9.88446e-07 4.63217e-06 14.6994 5.28671 0.441734 12.9945 -0.242716 -4.98039 89.3865 3.50311 -95.0609 -5.34813 -1.25947e-06 -3.79883e-06 -59.801 -25.8733 16.2253 -24.3289 0.000322201 -8.65921e-06 1.942 5.85568 -18.3926 -22.2915 -0.000108084 -4.47941e-06 28.312 5.427 -3.83588 -2.19248 -6.46944 -1.22534e-07 -175.417 7.32546 -30.5966 39.0811 -6.73843e-06 -1.23785e-05 -0.546559 0.20818 68.2127 40.9854 -6.48686e-06 -1.26872e-05 8.21002 -16.493 -47.8598 11.7543 -2.30145e-07 3.05095e-06 0.443352 -0.537673 -21.6563 -2.19251 6.46944 -1.45247e-06 -166.402 15.3205 170.103 -39.0811 -0.00228153 -0.0401928 0.142362 -0.336872 19.9756 -40.9854 7.72618e-06 5.99936e-06 7.79606 -10.1852 -65.5871 -11.7543 -5.6619e-06 -5.58687e-06 0.0655973 -0.0684994 -17.1019 
0 0 0 0 0 -0 1.60027 91.1546 -464.359 87.7039 0.269566 -2.63256 15.7357 5.1072e-06 -5.51765e-07 160.358 86.1183 -159.463 8.98455 -0.406207 -4.3199e-07 -5.23483 7.202 2.12317 16.3773 -1.3905e-06 -6.99897e-07 -12.2972 0.594431 -3.31191 6.45672 -1.25837e-06 -1.02172e-07 -3.40919 -8.0041 -1.90796 12.9942 -0.242716 4.98039 -90.6524 1.92477 -86.2737 5.34809 -7.22636e-06 -6.2814e-07 -50.7446 -27.9741 27.2092 24.3286 1.87007e-05 4.90208e-06 8.42167 15.4038 -29.1329 22.2916 -9.88446e-07 4.63217e-06 15.6161 5.28323 0.53667 12.9945 -0.242716 -4.98039 89.5283 2.96341 -95.953 -5.34813 -1.25947e-06 -3.79883e-06 -59.6683 -26.497 14.8975 -24.3289 0.000322201 -8.65921e-06 2.20961 6.26007 -19.4944 -22.2915 -0.000108084 -4.47941e-06 27.8772 5.4181 -3.5342 -2.19248 -6.46944 -1.22534e-07 -175.578 10.1071 -33.3801 39.0811 -6.73843e-06 -1.23785e-05 -0.471589 0.231632 62.7685 40.9854 -6.48686e-06 -1.26872e-05 8.43051 -17.7727 -49.2437 11.7543 -2.30145e-07 3.05095e-06 0.470513 -0.573976 -21.9864 -2.19251 6.46944 -1.45247e-06 -167.46 15.5791 171.462 -39.0811 -0.00228153 -0.0401928 0.120234 -0.299076 18.8685 -40.9854 7.72618e-06 5.99936e-06 7.28996 -10.5434 -66.0504 -11.7543 -5.6619e-06 -5.58687e-06 0.042931 -0.0446849 -16.9189 
0 0 0 0 0 -0 1.7028 91.2984 -462.924 88.2933 0.85665 -3.11188 15.7357 5.1072e-06 -5.51765e-07 160.198 85.8103 -159.669 8.98455 -0.406207 -4.3199e-07 -4.98837 7.81698 1.40156 16.3773 -1.3905e-06 -6.99897e-07 -12.7695 0.251892 -3.49078 6.45672 -1.25837e-06 -1.02172e-07 -3.49034 -9.09636 -1.36257 12.9942 -0.242716 4.98039 -90.8166 2.32881 -85.672 5.34809 -7.22636e-06 -6.2814e-07 -49.2164 -29.7016 27.7247 24.3286 1.87007e-05 4.90207e-06 9.80944 15.9666 -32.1499 22.2916 -9.88446e-07 4.63217e-06 16.1158 5.26318 1.08082 12.9945 -0.242716 -4.98039 89.6401 2.47984 -96.7399 -5.34813 -1.25947e-06 -3.79883e-06 -59.3191 -26.8055 13.9553 -24.3289 0.000322201 -8.65921e-06 2.50978 6.52669 -21.0951 -22.2915 -0.000108084 -4.47941e-06 27.4482 5.40337 -3.04664 -2.19248 -6.46944 -1.22533e-07 -175.531 11.9058 -35.2202 39.0811 -6.73843e-06 -1.23785e-05 -0.345536 0.232608 54.7359 40.9854 -6.48686e-06 -1.26872e-05 7.52498 -17.3037 -50.5521 11.7543 -2.30145e-07 3.05095e-06 0.458026 -0.557207 -21.8342 -2.19251 6.46944 -1.45247e-06 -168.239 15.6793 172.718 -39.0811 -0.00228153 -0.0401928 0.0876927 -0.229823 17.3805 -40.9854 7.72618e-06 5.99936e-06 6.83149 -10.9112 -66.2769 -11.7543 -5.6619e-06 -5.58687e-06 0.0485977 -0.0506195 -16.9646 
0 0 0 0 0 -0 1.78125 91.369 -461.474 88.6023 1.56875 -3.84266 15.7357 5.1072e-06 -5.51764e-07 161.458 85.6247 -161.215 8.98455 -0.406207 -4.3199e-07 -5.0291 8.26064 0.851462 16.3773 -1.3905e-06 -6.99897e-07 -13.1262 -0.104838 -3.54038 6.45672 -1.25837e-06 -1.02172e-07 -3.52028 -10.202 -0.720834 12.9942 -0.242716 4.98039 -91.0065 2.79828 -85.2089 5.34809 -7.22636e-06 -6.2814e-07 -47.7277 -31.5732 28.6877 24.3286 1.87007e-05 4.90208e-06 11.3226 16.2283 -35.6194 22.2916 -9.88446e-07 4.63217e-06 16.6494 5.24486 1.56784 12.9945 -0.242716 -4.98039 89.6796 2.38298 -97.3407 -5.34813 -1.25947e-06 -3.79883e-06 -58.3803 -26.7872 13.508 -24.3289 0.000322201 -8.65921e-06 3.03701 7.33619 -22.5688 -22.2915 -0.000108084 -4.47941e-06 26.9349 5.38758 -2.53762 -2.19248 -6.46944 -1.22533e-07 -175.766 12.1426 -35.7952 39.0811 -6.73843e-06 -1.23785e-05 -0.236926 0.22812 44.2101 40.9854 -6.48686e-06 -1.26872e-05 7.48533 -16.4698 -51.2565 11.7543 -2.30145e-07 3.05095e-06 0.455632 -0.554018 -21.8051 -2.19251 6.46944 -1.45247e-06 -168.612 15.2393 173.755 -39.0811 -0.00228153 -0.0401928 0.0589422 -0.160192 15.8239 -40.9854 7.72618e-06 5.99936e-06 6.31027 -11.9178 -66.4349 -11.7543 -5.6619e-06 -5.58687e-06 0.0366999 -0.0381664 -16.8687 
